<svg id="visual" viewBox="0 0 900 600" width="900" height="600" xmlns="http://www.w3.org/2000/svg" xmlns:xlink="http://www.w3.org/1999/xlink" version="1.1"><path d="M0 85L150 85L150 73L300 73L300 103L450 103L450 61L600 61L600 43L750 43L750 121L900 121L900 79L900 0L900 0L750 0L750 0L600 0L600 0L450 0L450 0L300 0L300 0L150 0L150 0L0 0Z" fill="#e4cbaf"></path><path d="M0 157L150 157L150 121L300 121L300 199L450 199L450 133L600 133L600 79L750 79L750 223L900 223L900 121L900 77L900 119L750 119L750 41L600 41L600 59L450 59L450 101L300 101L300 71L150 71L150 83L0 83Z" fill="#c6a89c"></path><path d="M0 265L150 265L150 235L300 235L300 241L450 241L450 187L600 187L600 217L750 217L750 319L900 319L900 259L900 119L900 221L750 221L750 77L600 77L600 131L450 131L450 197L300 197L300 119L150 119L150 155L0 155Z" fill="#a18989"></path><path d="M0 415L150 415L150 331L300 331L300 493L450 493L450 421L600 421L600 325L750 325L750 385L900 385L900 385L900 257L900 317L750 317L750 215L600 215L600 185L450 185L450 239L300 239L300 233L150 233L150 263L0 263Z" fill="#7a6d71"></path><path d="M0 601L150 601L150 601L300 601L300 601L450 601L450 601L600 601L600 601L750 601L750 601L900 601L900 601L900 383L900 383L750 383L750 323L600 323L600 419L450 419L450 491L300 491L300 329L150 329L150 413L0 413Z" fill="#555255"></path></svg>