<svg id="visual" viewBox="0 0 900 600" width="900" height="600" xmlns="http://www.w3.org/2000/svg" xmlns:xlink="http://www.w3.org/1999/xlink" version="1.1"><rect x="0" y="0" width="900" height="600" fill="#555255"></rect><path d="M0 139L15 143C30 147 60 155 90 163.2C120 171.3 150 179.7 180 182.3C210 185 240 182 270 171.7C300 161.3 330 143.7 360 145C390 146.3 420 166.7 450 156.8C480 147 510 107 540 105.5C570 104 600 141 630 153.2C660 165.3 690 152.7 720 131.3C750 110 780 80 810 85.8C840 91.7 870 133.3 885 154.2L900 175L900 0L885 0C870 0 840 0 810 0C780 0 750 0 720 0C690 0 660 0 630 0C600 0 570 0 540 0C510 0 480 0 450 0C420 0 390 0 360 0C330 0 300 0 270 0C240 0 210 0 180 0C150 0 120 0 90 0C60 0 30 0 15 0L0 0Z" fill="#000000" stroke-linecap="round" stroke-linejoin="miter"></path></svg>