<svg id="visual" viewBox="0 0 900 600" width="900" height="600" xmlns="http://www.w3.org/2000/svg" xmlns:xlink="http://www.w3.org/1999/xlink" version="1.1"><rect x="0" y="0" width="900" height="600" fill="#607D8B"></rect><path d="M0 132L37.5 175.5C75 219 150 306 225 323.3C300 340.7 375 288.3 450 251.5C525 214.7 600 193.3 675 201.7C750 210 825 248 862.5 267L900 286L900 0L862.5 0C825 0 750 0 675 0C600 0 525 0 450 0C375 0 300 0 225 0C150 0 75 0 37.5 0L0 0Z" fill="#060606" stroke-linecap="round" stroke-linejoin="miter"></path></svg>