<svg id="visual" viewBox="0 0 900 675" width="900" height="675" xmlns="http://www.w3.org/2000/svg" xmlns:xlink="http://www.w3.org/1999/xlink" version="1.1"><rect x="0" y="0" width="900" height="675" fill="#607D8B"></rect><path d="M0 192L21.5 184.3C43 176.7 86 161.3 128.8 146C171.7 130.7 214.3 115.3 257.2 106.7C300 98 343 96 385.8 99.7C428.7 103.3 471.3 112.7 514.2 134.5C557 156.3 600 190.7 642.8 206.3C685.7 222 728.3 219 771.2 207.3C814 195.7 857 175.3 878.5 165.2L900 155L900 0L878.5 0C857 0 814 0 771.2 0C728.3 0 685.7 0 642.8 0C600 0 557 0 514.2 0C471.3 0 428.7 0 385.8 0C343 0 300 0 257.2 0C214.3 0 171.7 0 128.8 0C86 0 43 0 21.5 0L0 0Z" fill="#060606" stroke-linecap="round" stroke-linejoin="miter"></path></svg>