<svg id="visual" viewBox="0 0 900 600" width="900" height="600" xmlns="http://www.w3.org/2000/svg" xmlns:xlink="http://www.w3.org/1999/xlink" version="1.1"><rect x="0" y="0" width="900" height="600" fill="#607D8B"></rect><path d="M0 244L37.5 258.7C75 273.3 150 302.7 225 321.8C300 341 375 350 450 319.5C525 289 600 219 675 204.2C750 189.3 825 229.7 862.5 249.8L900 270L900 0L862.5 0C825 0 750 0 675 0C600 0 525 0 450 0C375 0 300 0 225 0C150 0 75 0 37.5 0L0 0Z" fill="#060606" stroke-linecap="round" stroke-linejoin="miter"></path></svg>