<svg id="visual" viewBox="0 0 900 675" width="900" height="675" xmlns="http://www.w3.org/2000/svg" xmlns:xlink="http://www.w3.org/1999/xlink" version="1.1"><rect x="0" y="0" width="900" height="675" fill="#607D8B"></rect><path d="M0 107L12.5 128C25 149 50 191 75 188.2C100 185.3 125 137.7 150 142.5C175 147.3 200 204.7 225 204C250 203.3 275 144.7 300 127.5C325 110.3 350 134.7 375 139.8C400 145 425 131 450 131.8C475 132.7 500 148.3 525 154.5C550 160.7 575 157.3 600 174.2C625 191 650 228 675 239.8C700 251.7 725 238.3 750 208C775 177.7 800 130.3 825 125.3C850 120.3 875 157.7 887.5 176.3L900 195L900 0L887.5 0C875 0 850 0 825 0C800 0 775 0 750 0C725 0 700 0 675 0C650 0 625 0 600 0C575 0 550 0 525 0C500 0 475 0 450 0C425 0 400 0 375 0C350 0 325 0 300 0C275 0 250 0 225 0C200 0 175 0 150 0C125 0 100 0 75 0C50 0 25 0 12.5 0L0 0Z" fill="#060606" stroke-linecap="round" stroke-linejoin="miter"></path></svg>