<svg id="visual" viewBox="0 0 900 675" width="900" height="675" xmlns="http://www.w3.org/2000/svg" xmlns:xlink="http://www.w3.org/1999/xlink" version="1.1"><rect x="0" y="0" width="900" height="675" fill="#607D8B"></rect><path d="M0 566L12.5 545C25 524 50 482 75 484.8C100 487.7 125 535.3 150 530.5C175 525.7 200 468.3 225 469C250 469.7 275 528.3 300 545.5C325 562.7 350 538.3 375 533.2C400 528 425 542 450 541.2C475 540.3 500 524.7 525 518.5C550 512.3 575 515.7 600 498.8C625 482 650 445 675 433.2C700 421.3 725 434.7 750 465C775 495.3 800 542.7 825 547.7C850 552.7 875 515.3 887.5 496.7L900 478L900 676L887.5 676C875 676 850 676 825 676C800 676 775 676 750 676C725 676 700 676 675 676C650 676 625 676 600 676C575 676 550 676 525 676C500 676 475 676 450 676C425 676 400 676 375 676C350 676 325 676 300 676C275 676 250 676 225 676C200 676 175 676 150 676C125 676 100 676 75 676C50 676 25 676 12.5 676L0 676Z" fill="#8C6C5B" stroke-linecap="round" stroke-linejoin="miter"></path></svg>