<svg id="visual" viewBox="0 0 900 600" width="900" height="600" xmlns="http://www.w3.org/2000/svg" xmlns:xlink="http://www.w3.org/1999/xlink" version="1.1"><rect x="0" y="0" width="900" height="600" fill="#555255"></rect><path d="M0 536L21.5 525.7C43 515.3 86 494.7 128.8 494.5C171.7 494.3 214.3 514.7 257.2 496.5C300 478.3 343 421.7 385.8 422.3C428.7 423 471.3 481 514.2 498.8C557 516.7 600 494.3 642.8 470.3C685.7 446.3 728.3 420.7 771.2 415.3C814 410 857 425 878.5 432.5L900 440L900 601L878.5 601C857 601 814 601 771.2 601C728.3 601 685.7 601 642.8 601C600 601 557 601 514.2 601C471.3 601 428.7 601 385.8 601C343 601 300 601 257.2 601C214.3 601 171.7 601 128.8 601C86 601 43 601 21.5 601L0 601Z" fill="#907963" stroke-linecap="round" stroke-linejoin="miter"></path></svg>