<svg id="visual" viewBox="0 0 900 675" width="900" height="675" xmlns="http://www.w3.org/2000/svg" xmlns:xlink="http://www.w3.org/1999/xlink" version="1.1"><rect x="0" y="0" width="900" height="675" fill="#607D8B"></rect><path d="M0 409L21.5 420.3C43 431.7 86 454.3 128.8 469.3C171.7 484.3 214.3 491.7 257.2 491.2C300 490.7 343 482.3 385.8 472.3C428.7 462.3 471.3 450.7 514.2 439.3C557 428 600 417 642.8 439.5C685.7 462 728.3 518 771.2 523.2C814 528.3 857 482.7 878.5 459.8L900 437L900 676L878.5 676C857 676 814 676 771.2 676C728.3 676 685.7 676 642.8 676C600 676 557 676 514.2 676C471.3 676 428.7 676 385.8 676C343 676 300 676 257.2 676C214.3 676 171.7 676 128.8 676C86 676 43 676 21.5 676L0 676Z" fill="#8C6C5B" stroke-linecap="round" stroke-linejoin="miter"></path></svg>